<?xml version="1.0" standalone="no"?>
<!DOCTYPE svg PUBLIC "-//W3C//DTD SVG 20010904//EN"
 "http://www.w3.org/TR/2001/REC-SVG-20010904/DTD/svg10.dtd">
<svg version="1.0" xmlns="http://www.w3.org/2000/svg"
 width="260.000000pt" height="260.000000pt" viewBox="0 0 260.000000 260.000000"
 preserveAspectRatio="xMidYMid meet">
<metadata>
Created by potrace 1.11, written by Peter Selinger 2001-2013
</metadata>
<g transform="translate(0.000000,260.000000) scale(0.100000,-0.100000)"
fill="#000000" stroke="none">
<path d="M1335 1982 c-105 -34 -123 -177 -30 -238 55 -36 151 -19 189 33 10
14 21 44 23 67 10 97 -85 169 -182 138z"/>
<path d="M2050 1849 c-75 -14 -168 -66 -202 -112 -40 -56 -49 -81 -53 -153 -9
-141 76 -227 294 -299 143 -47 177 -79 155 -143 -30 -85 -218 -85 -334 -1
l-44 32 -24 -29 c-13 -16 -42 -48 -64 -72 -21 -23 -36 -47 -33 -52 3 -6 32
-28 64 -49 181 -123 485 -115 618 18 56 55 78 113 77 201 0 91 -27 154 -88
204 -55 45 -82 58 -213 101 -120 41 -153 62 -153 100 0 81 170 94 281 21 22
-15 44 -26 49 -24 5 2 34 32 65 68 l55 65 -33 29 c-37 33 -87 59 -153 82 -54
18 -197 25 -264 13z"/>
<path d="M109 1817 c-1 -12 -2 -35 -4 -52 -1 -16 -6 -93 -10 -170 -4 -77 -8
-160 -10 -185 -8 -102 -19 -341 -19 -420 l-1 -85 105 0 105 0 1 60 c1 33 3
135 4 228 3 164 6 193 16 125 3 -18 15 -78 26 -133 11 -55 21 -107 23 -115 1
-12 21 -15 98 -15 l96 0 7 40 c3 22 8 49 10 60 7 35 13 68 19 115 4 25 10 48
13 52 6 6 8 -45 16 -347 l1 -70 100 -1 c55 -1 106 3 112 9 8 6 11 26 9 56 -3
25 -8 100 -11 166 -6 130 -13 250 -20 360 -2 39 -7 128 -10 200 -4 71 -8 133
-11 136 -2 4 -59 6 -126 5 l-123 -1 -22 -130 c-12 -71 -25 -150 -28 -175 -3
-25 -8 -52 -10 -60 -2 -8 -7 -35 -10 -60 -4 -25 -8 -46 -9 -48 -2 -1 -11 44
-21 100 -10 57 -19 112 -21 123 -3 11 -11 63 -19 115 -8 52 -17 104 -20 115
-4 20 -12 21 -130 22 -122 2 -125 1 -126 -20z"/>
<path d="M1059 1620 c-12 -7 -15 -25 -14 -77 0 -37 4 -74 8 -80 6 -9 42 -13
123 -13 102 0 114 -2 114 -17 4 -133 -2 -395 -10 -423 -22 -82 -87 -142 -189
-176 -63 -20 -66 -21 -83 -23 -31 -3 -37 -16 -27 -56 5 -22 12 -58 15 -80 7
-48 21 -67 43 -61 9 3 27 7 41 10 51 10 67 15 132 40 91 34 145 67 199 121 49
49 95 130 104 186 3 19 8 42 11 52 3 9 6 146 6 303 0 227 -2 288 -13 294 -18
12 -440 11 -460 0z"/>
</g>
</svg>
